<svg viewBox="0 0 48 48" xml:space="preserve" xmlns="http://www.w3.org/2000/svg"><g fill="#ff453a" class="fill-241f20"><path d="M18.083 17.999V48h30V17.999h-30zm26 26.001h-22V21.999h22V44z"></path><path d="M29.823 36.339h6.387l1.924 5.666h2.485l-6.146-18.011h-2.807l-6.12 18.011h2.405l1.872-5.666zm2.245-7.027c.347-1.096.641-2.191.907-3.26h.054c.268 1.042.535 2.111.937 3.287l1.763 5.184h-5.425l1.764-5.211zM4 4h18v10.984h4V0H0v26h15v-4H4z"></path><path d="M20.103 9.867V7.684h-5.797l-.678-2.186-2.085.647.477 1.539H5.67v2.184h3.279c.309 2.883 1.269 4.965 2.479 6.498-1.348 1.005-3.192 1.893-5.758 2.433l.958 1.704s3.428-.134 6.373-2.529a11.289 11.289 0 0 0 3.016 1.739v-2.437a11.693 11.693 0 0 1-1.443-.91c1.21-1.533 2.17-3.615 2.479-6.498h3.05zM13 14.907c-2.102-2.467-1.98-5.04-1.98-5.04h3.96s.121 2.573-1.98 5.04z"></path></g></svg>